PathFileType	4	(X/Y/Z)	OpenSim_static_markers.trc
DataRate	CameraRate	NumFrames	NumMarkers	Units	OrigDataRate	OrigDataStartFrame	OrigNumFrames
100	100	6	38	m	100	1	6
Frame#	Time	APEX	L2MT	L5MT	LASI	LCAL	LGTR	LLEP	LLML	LMEP	LMML	LPS1	LPS2	LSH1	LSH2	LSH3	LTH1	LTH2	LTH3	LTTB	R1MT	R2MT	R5MT	RASI	RCAL	RGTR	RLEP	RLML	RMEP	RMML	RPS1	RPS2	RSH1	RSH2	RSH3	RTH1	RTH2	RTH3	RTTB
				X1	Y1	Z1	X2	Y2	Z2	X3	Y3	Z3	X4	Y4	Z4	X5	Y5	Z5	X6	Y6	Z6	X7	Y7	Z7	X8	Y8	Z8	X9	Y9	Z9	X10	Y10	Z10	X11	Y11	Z11	X12	Y12	Z12	X13	Y13	Z13	X14	Y14	Z14	X15	Y15	Z15	X16	Y16	Z16	X17	Y17	Z17	X18	Y18	Z18	X19	Y19	Z19	X20	Y20	Z20	X21	Y21	Z21	X22	Y22	Z22	X23	Y23	Z23	X24	Y24	Z24	X25	Y25	Z25	X26	Y26	Z26	X27	Y27	Z27	X28	Y28	Z28	X29	Y29	Z29	X30	Y30	Z30	X31	Y31	Z31	X32	Y32	Z32	X33	Y33	Z33	X34	Y34	Z34	X35	Y35	Z35	X36	Y36	Z36	X37	Y37	Z37	X38		Y38	Z38	

1	0	0.65475800	1.62056300	-0.48112700	0.69947000	0.06240700	-0.65474500	0.65331900	0.04015600	-0.70697200	0.68851900	0.90961500	-0.64350400	0.48828000	0.07136300	-0.62792600	0.57931900	0.87636700	-0.66788800	0.62203700	0.46991600	-0.64349200	0.55872800	0.08425600	-0.67516700	0.63320000	0.46343000	-0.52754300	0.57565600	0.08465900	-0.59329300	0.49994200	1.00936800	-0.52245000	0.47774500	0.94333800	-0.52754900	0.56075100	0.43858600	-0.65513700	0.56023200	0.33898700	-0.67507300	0.61659000	0.33431600	-0.66713100	0.59707700	0.75530100	-0.68373900	0.60810800	0.65334700	-0.67133300	0.66400400	0.66114700	-0.65346400	0.64913900	0.42252700	-0.59709200	0.68227500	0.04891800	-0.41527800	0.68670100	0.06491700	-0.37713100	0.63660100	0.04187800	-0.32238400	0.63404300	0.90273500	-0.30534900	0.48023800	0.07416900	-0.42383500	0.48001100	0.39096100	0.38203400	0.56622900	0.47748800	-0.36302700	0.53864800	0.08196300	-0.36629400	0.58369000	0.46940100	-0.48649200	0.56939800	0.09622300	-0.44373000	0.49858100	1.01196700	-0.47432300	0.47451300	0.93851800	-0.45928100	0.56747600	0.42618500	-0.34412100	0.56520100	0.32170200	-0.33531500	0.50582600	0.32485200	-0.33402600	0.60254600	0.74298000	-0.30337500	0.58095900	0.64390400	-0.32523600	0.52270400	0.65717500	-0.32992100	0.59037400	0.41548200	-0.40295300
2	0.01000000	0.65351100	1.62099600	-0.48188100	0.69949500	0.06238000	-0.65473700	0.65333000	0.04014500	-0.70697400	0.68896000	0.90951400	-0.64347400	0.48833900	0.07126700	-0.62815100	0.58001200	0.87632100	-0.66803000	0.62221900	0.46996300	-0.64358200	0.55876700	0.08429700	-0.67517400	0.63319400	0.46335600	-0.52754100	0.57566400	0.08464100	-0.59329400	0.50072800	1.00938000	-0.52270800	0.47834500	0.94331500	-0.52795100	0.56083900	0.43857000	-0.65514400	0.56026900	0.33894600	-0.67507400	0.61667300	0.33429200	-0.66712100	0.59755200	0.75527200	-0.68384000	0.60851900	0.65336400	-0.67140600	0.66438800	0.66109600	-0.65344200	0.64919900	0.42249800	-0.59705700	0.68227400	0.04893100	-0.41527000	0.68669800	0.06492600	-0.37710200	0.63660800	0.04189200	-0.32236000	0.63406600	0.90281100	-0.30543500	0.48025000	0.07419400	-0.42384200	0.48007200	0.39175400	0.38079800	0.56626300	0.47748100	-0.36317000	0.53866100	0.08199800	-0.36629100	0.58405700	0.46943000	-0.48659400	0.56942200	0.09623200	-0.44373700	0.49887600	1.01198700	-0.47464900	0.47476700	0.93856600	-0.45963300	0.56753600	0.42622300	-0.34426800	0.56519900	0.32177700	-0.33541400	0.50586000	0.32498300	-0.33431800	0.60251400	0.74306000	-0.30350200	0.58096900	0.64393900	-0.32538300	0.52274900	0.65726600	-0.33020000	0.59049500	0.41546300	-0.40305800
3	0.02000000	0.65273900	1.62115300	-0.48233300	0.69953400	0.06237000	-0.65473400	0.65332700	0.04014500	-0.70698700	0.69070600	0.91014500	-0.64351200	0.48835100	0.07125900	-0.62823600	0.58056000	0.87616200	-0.66806400	0.62233800	0.46993300	-0.64359600	0.55888700	0.08430500	-0.67516700	0.63324700	0.46330900	-0.52757200	0.57568000	0.08465700	-0.59331200	0.50092100	1.00947900	-0.52323300	0.47877800	0.94333000	-0.52841200	0.56095400	0.43856700	-0.65521600	0.56033000	0.33893200	-0.67509600	0.61680300	0.33430200	-0.66712800	0.59802600	0.75532400	-0.68392400	0.60886900	0.65333700	-0.67146900	0.66471700	0.66102800	-0.65347100	0.64931100	0.42248300	-0.59704900	0.68226900	0.04891000	-0.41526100	0.68671300	0.06493300	-0.37707100	0.63660800	0.04189300	-0.32235900	0.63410600	0.90286100	-0.30556500	0.48025700	0.07419500	-0.42383000	0.48007200	0.39251700	0.37959300	0.56633000	0.47755300	-0.36325800	0.53865200	0.08198800	-0.36632100	0.58442400	0.46942300	-0.48669700	0.56943900	0.09625100	-0.44374100	0.49985300	1.01189600	-0.47490000	0.47501400	0.93863300	-0.45993800	0.56757100	0.42628300	-0.34437400	0.56518300	0.32183700	-0.33549900	0.50587600	0.32503100	-0.33452700	0.60251900	0.74313000	-0.30361500	0.58097400	0.64399000	-0.32549000	0.52276200	0.65733800	-0.33043400	0.59057700	0.41543900	-0.40312100
4	0.03000000	0.65181000	1.62101900	-0.48353200	0.69954500	0.06233600	-0.65474900	0.65334900	0.04013000	-0.70699700	0.69216400	0.91054700	-0.64342300	0.48834700	0.07128700	-0.62823600	0.58119000	0.87608900	-0.66825900	0.62245900	0.46990200	-0.64363100	0.55885200	0.08432800	-0.67517000	0.63337500	0.46328300	-0.52761200	0.57568000	0.08463300	-0.59334200	0.50125500	1.00951700	-0.52346100	0.47911600	0.94334300	-0.52873600	0.56107400	0.43856300	-0.65526400	0.56037500	0.33890900	-0.67507700	0.61691700	0.33428800	-0.66715600	0.59840600	0.75532700	-0.68398200	0.60919400	0.65333400	-0.67153600	0.66498600	0.66094100	-0.65353400	0.64942400	0.42245300	-0.59705600	0.68226100	0.04889700	-0.41525200	0.68671300	0.06493700	-0.37706600	0.63660900	0.04187900	-0.32235100	0.63414500	0.90289600	-0.30566800	0.48026100	0.07420500	-0.42384400	0.48013300	0.39331100	0.37837200	0.56627100	0.47753600	-0.36334800	0.53865600	0.08203500	-0.36630700	0.58460600	0.46940700	-0.48678400	0.56944900	0.09624600	-0.44373100	0.50033300	1.01202800	-0.47523200	0.47523300	0.93871000	-0.46023700	0.56755500	0.42632100	-0.34447600	0.56515200	0.32188500	-0.33557500	0.50584900	0.32508900	-0.33461100	0.60251000	0.74319400	-0.30372100	0.58096600	0.64404100	-0.32557600	0.52271700	0.65742100	-0.33062900	0.59063200	0.41545200	-0.40319900
5	0.04000000	0.65071300	1.62111600	-0.48423100	0.69956300	0.06229400	-0.65475800	0.65336500	0.04010800	-0.70701100	0.69329300	0.91095800	-0.64324400	0.48836000	0.07131100	-0.62822000	0.58184200	0.87597700	-0.66837200	0.62259500	0.46990800	-0.64368000	0.55889300	0.08429000	-0.67516300	0.63354400	0.46327200	-0.52765900	0.57571800	0.08464400	-0.59331500	0.50188700	1.00985000	-0.52394900	0.47951300	0.94337900	-0.52902300	0.56119800	0.43858100	-0.65532200	0.56043100	0.33888100	-0.67507500	0.61703300	0.33425100	-0.66720200	0.59881500	0.75529000	-0.68401500	0.60949000	0.65332100	-0.67159300	0.66536000	0.66087700	-0.65362300	0.64955600	0.42242600	-0.59705500	0.68226700	0.04892400	-0.41523600	0.68671300	0.06492600	-0.37706700	0.63659800	0.04187000	-0.32233700	0.63429100	0.90293800	-0.30591400	0.48026300	0.07422100	-0.42385100	0.48016400	0.39410400	0.37715100	0.56622500	0.47752200	-0.36344700	0.53865700	0.08204700	-0.36631500	0.58476500	0.46938800	-0.48686800	0.56946400	0.09625700	-0.44372500	0.50065500	1.01201400	-0.47554600	0.47548400	0.93875900	-0.46049300	0.56751600	0.42635900	-0.34455300	0.56509600	0.32192100	-0.33564300	0.50581500	0.32512300	-0.33469000	0.60249600	0.74323100	-0.30384100	0.58093300	0.64408800	-0.32566000	0.52269200	0.65750700	-0.33078900	0.59068100	0.41546700	-0.40326300
6	0.05000000	0.65008400	1.62119900	-0.48468500	0.69957500	0.06228800	-0.65475400	0.65335800	0.04011300	-0.70702000	0.69361000	0.91090000	-0.64323100	0.48838100	0.07132300	-0.62821000	0.58240700	0.87603700	-0.66862100	0.62274300	0.46990800	-0.64373200	0.55892800	0.08429600	-0.67515300	0.63369000	0.46325600	-0.52770900	0.57572300	0.08462000	-0.59330500	0.50234400	1.00983800	-0.52431300	0.47995100	0.94340300	-0.52946000	0.56134800	0.43856000	-0.65536300	0.56053500	0.33875100	-0.67515400	0.61717200	0.33423800	-0.66723300	0.59919000	0.75525400	-0.68406300	0.60980400	0.65332700	-0.67166600	0.66568000	0.66081300	-0.65369300	0.64969200	0.42240300	-0.59706500	0.68227000	0.04893200	-0.41524500	0.68670400	0.06492400	-0.37705200	0.63660500	0.04187600	-0.32233000	0.63437100	0.90293500	-0.30602500	0.48025600	0.07424300	-0.42385900	0.48019400	0.39486700	0.37593100	0.56617500	0.47754000	-0.36350900	0.53864000	0.08205200	-0.36630800	0.58485200	0.46938100	-0.48694100	0.56945500	0.09625100	-0.44372200	0.50091700	1.01187900	-0.47600400	0.47581600	0.93875200	-0.46097800	0.56744500	0.42638600	-0.34464000	0.56502500	0.32196800	-0.33569000	0.50575700	0.32516000	-0.33476500	0.60248900	0.74329000	-0.30392800	0.58087900	0.64412200	-0.32574700	0.52264200	0.65757500	-0.33098100	0.59068200	0.41547200	-0.40332200
